<svg xmlns="http://www.w3.org/2000/svg" width="2048" height="2048" viewBox="0 0 2048 2048">
  <defs>
    <filter id="shadow" x="-30%" y="-30%" width="160%" height="170%"><feDropShadow dx="0" dy="32" stdDeviation="32" flood-color="#102746" flood-opacity=".24"/></filter>
    <linearGradient id="toy" x1="0" x2="1"><stop offset="0" stop-color="#fff" stop-opacity=".55"/><stop offset=".38" stop-color="#fff" stop-opacity=".12"/><stop offset="1" stop-color="#102746" stop-opacity=".12"/></linearGradient>
  </defs>
  <ellipse cx="1024" cy="1692" rx="420" ry="72" fill="#102746" opacity=".10"/>
  <ellipse cx="1024" cy="980" rx="610" ry="640" fill="#2f95df" opacity=".34"/>
  <g opacity=".82" stroke="#58db5b" stroke-width="38" stroke-linecap="round" fill="none">
      <path d="M520 846 C430 1000 450 1170 560 1304"/>
      <path d="M1528 846 C1618 1000 1598 1170 1488 1304"/>
      <ellipse cx="1024" cy="1518" rx="360" ry="76" fill="#c8ffd0" stroke="none"/>
    </g>
  <g filter="url(#shadow)" transform="translate(0 -26) rotate(2 1024 1024) scale(1.02)"><rect x="520" y="820" width="930" height="420" rx="120" fill="#2f95df" stroke="#102746" stroke-width="34"/><rect x="680" y="650" width="240" height="210" rx="60" fill="#ef5954" stroke="#102746" stroke-width="30"/><rect x="950" y="690" width="300" height="190" rx="50" fill="#ffd33f" stroke="#102746" stroke-width="28"/><circle cx="740" cy="1260" r="86" fill="#102746"/><circle cx="1210" cy="1260" r="86" fill="#102746"/><ellipse cx="941.1" cy="976.36" rx="26.04" ry="34.72" fill="#102746"/>
      <ellipse cx="1058.9" cy="976.36" rx="26.04" ry="34.72" fill="#102746"/>
      <ellipse cx="949.78" cy="965.2" rx="8.06" ry="11.16" fill="#fff"/>
      <ellipse cx="1067.5800000000002" cy="965.2" rx="8.06" ry="11.16" fill="#fff"/><ellipse cx="910.1" cy="1018.52" rx="24.8" ry="16.12" fill="#ff9aa5" opacity=".7"/>
    <ellipse cx="1089.9" cy="1018.52" rx="24.8" ry="16.12" fill="#ff9aa5" opacity=".7"/><path d="M942.96 1060.68 Q1000 1120.2 1057.04 1060.68" fill="none" stroke="#102746" stroke-width="14.26" stroke-linecap="round"/></g>
  </svg>