<svg xmlns="http://www.w3.org/2000/svg" width="2048" height="2048" viewBox="0 0 2048 2048">
  <defs>
    <filter id="shadow" x="-30%" y="-30%" width="160%" height="170%"><feDropShadow dx="0" dy="32" stdDeviation="32" flood-color="#102746" flood-opacity=".24"/></filter>
    <linearGradient id="toy" x1="0" x2="1"><stop offset="0" stop-color="#fff" stop-opacity=".55"/><stop offset=".38" stop-color="#fff" stop-opacity=".12"/><stop offset="1" stop-color="#102746" stop-opacity=".12"/></linearGradient>
  </defs>
  <ellipse cx="1024" cy="1692" rx="420" ry="72" fill="#102746" opacity=".10"/>
  <ellipse cx="1024" cy="980" rx="610" ry="640" fill="#c9893f" opacity=".34"/>
  <g opacity=".82">
      <ellipse cx="1024" cy="1508" rx="360" ry="84" fill="#cfe1ff"/>
      <path d="M1338 540 C1258 570 1216 666 1252 748 C1178 706 1138 612 1174 526 C1210 438 1300 394 1388 420 C1348 448 1328 492 1338 540Z" fill="#9fc2ff"/>
    </g>
  <g filter="url(#shadow)" transform="translate(0 42) rotate(-5 1024 1024) scale(.96)"><path d="M520 900 Q1024 520 1528 900 V1440 H520Z" fill="#c9893f" stroke="#102746" stroke-width="34"/><rect x="520" y="920" width="1008" height="520" rx="70" fill="#b87934" stroke="#102746" stroke-width="34"/><path d="M520 1030 H1528 M1024 900 V1440" stroke="#102746" stroke-width="26"/><rect x="944" y="1090" width="160" height="140" rx="34" fill="#ffd33f" stroke="#102746" stroke-width="22"/><path d="M943.38 1002.24 C963.1 1021.96 994.42 1021.96 1014.14 1002.24" fill="none" stroke="#102746" stroke-width="12.76" stroke-linecap="round"/>
      <path d="M1033.86 1002.24 C1053.58 1021.96 1084.8999999999999 1021.96 1104.62 1002.24" fill="none" stroke="#102746" stroke-width="12.76" stroke-linecap="round"/><ellipse cx="939.9" cy="1041.68" rx="23.2" ry="15.079999999999998" fill="#ff9aa5" opacity=".7"/>
    <ellipse cx="1108.1" cy="1041.68" rx="23.2" ry="15.079999999999998" fill="#ff9aa5" opacity=".7"/><path d="M1006.6 1085.76 Q1024 1069.52 1041.4 1085.76" fill="none" stroke="#102746" stroke-width="10.44" stroke-linecap="round"/><text x="1310" y="515" font-family="Arial" font-size="96" font-weight="900" fill="#2f69d9">z</text></g>
  </svg>