<svg xmlns="http://www.w3.org/2000/svg" width="2048" height="2048" viewBox="0 0 2048 2048">
  <defs>
    <filter id="shadow" x="-30%" y="-30%" width="160%" height="170%"><feDropShadow dx="0" dy="32" stdDeviation="32" flood-color="#102746" flood-opacity=".24"/></filter>
    <linearGradient id="toy" x1="0" x2="1"><stop offset="0" stop-color="#fff" stop-opacity=".55"/><stop offset=".38" stop-color="#fff" stop-opacity=".12"/><stop offset="1" stop-color="#102746" stop-opacity=".12"/></linearGradient>
  </defs>
  <ellipse cx="1024" cy="1692" rx="420" ry="72" fill="#102746" opacity=".10"/>
  <ellipse cx="1024" cy="980" rx="610" ry="640" fill="#ffd33f" opacity=".34"/>
  <g opacity=".8">
      <path d="M1428 640 C1490 725 1446 810 1378 828 C1412 758 1392 704 1340 654Z" fill="#7bb7ff"/>
      <ellipse cx="1024" cy="1518" rx="330" ry="70" fill="#ffd9bd"/>
    </g>
  <g filter="url(#shadow)" transform="translate(0 22) rotate(-2 1024 1024) scale(.98)"><g transform="rotate(-18 1024 1024)"><rect x="560" y="760" width="920" height="280" rx="80" fill="#ffd33f" stroke="#102746" stroke-width="34"/><path d="M1480 760 L1700 900 L1480 1040Z" fill="#f0c58a" stroke="#102746" stroke-width="30"/><path d="M1700 900 L1578 940 L1578 860Z" fill="#102746"/><rect x="500" y="760" width="150" height="280" rx="60" fill="#ff7ca8" stroke="#102746" stroke-width="30"/><path d="M924.74 870.6800000000001 C954.9 848.64 987.38 867.2" fill="none" stroke="#102746" stroke-width="10.44" stroke-linecap="round"/>
      <path d="M1032.62 867.2 C1065.1 848.64 1095.26 870.6800000000001" fill="none" stroke="#102746" stroke-width="10.44" stroke-linecap="round"/><ellipse cx="954.9" cy="889.24" rx="24.36" ry="25.52" fill="#102746"/>
      <ellipse cx="1065.1" cy="889.24" rx="24.36" ry="25.52" fill="#102746"/>
      <ellipse cx="963.02" cy="878.8" rx="7.539999999999999" ry="10.44" fill="#fff"/>
      <ellipse cx="1073.2199999999998" cy="878.8" rx="7.539999999999999" ry="10.44" fill="#fff"/><ellipse cx="925.9" cy="928.68" rx="23.2" ry="15.079999999999998" fill="#ff9aa5" opacity=".7"/>
    <ellipse cx="1094.1" cy="928.68" rx="23.2" ry="15.079999999999998" fill="#ff9aa5" opacity=".7"/><path d="M979.84 972.76 Q1010 998.28 1040.16 972.76" fill="none" stroke="#102746" stroke-width="10.44" stroke-linecap="round"/></g></g>
  </svg>