<svg xmlns="http://www.w3.org/2000/svg" width="2048" height="2048" viewBox="0 0 2048 2048">
  <defs>
    <filter id="shadow" x="-30%" y="-30%" width="160%" height="170%"><feDropShadow dx="0" dy="32" stdDeviation="32" flood-color="#102746" flood-opacity=".24"/></filter>
    <linearGradient id="toy" x1="0" x2="1"><stop offset="0" stop-color="#fff" stop-opacity=".55"/><stop offset=".38" stop-color="#fff" stop-opacity=".12"/><stop offset="1" stop-color="#102746" stop-opacity=".12"/></linearGradient>
  </defs>
  <ellipse cx="1024" cy="1692" rx="420" ry="72" fill="#102746" opacity=".10"/>
  <ellipse cx="1024" cy="980" rx="610" ry="640" fill="#2f95df" opacity=".34"/>
  <g opacity=".86" stroke="#1fc9f5" stroke-width="42" stroke-linecap="round" fill="#ffd94e">
    <path d="M470 610 L390 530"/><path d="M1578 610 L1658 530"/>
    <path d="M390 990 H270"/><path d="M1658 990 H1778"/>
    <path d="M560 1370 L470 1460"/><path d="M1488 1370 L1578 1460"/>
    <circle cx="566" cy="430" r="28"/><circle cx="1482" cy="430" r="28"/>
  </g>
  <g filter="url(#shadow)" transform="translate(0 -48) rotate(4 1024 1024) scale(1.04)"><circle cx="1024" cy="980" r="410" fill="#2f95df" stroke="#102746" stroke-width="34"/><path d="M790 740 C890 680 1020 720 990 850 C930 930 778 890 790 740Z" fill="#52b357"/><path d="M1110 1030 C1238 930 1420 990 1360 1180 C1226 1240 1088 1184 1110 1030Z" fill="#52b357"/><ellipse cx="933.75" cy="894.1" rx="39.9" ry="60.8" fill="#102746"/>
      <ellipse cx="1114.25" cy="894.1" rx="39.9" ry="60.8" fill="#102746"/>
      <ellipse cx="947.05" cy="877" rx="12.35" ry="17.099999999999998" fill="#fff"/>
      <ellipse cx="1127.55" cy="877" rx="12.35" ry="17.099999999999998" fill="#fff"/><ellipse cx="886.25" cy="958.7" rx="38" ry="24.7" fill="#ff9aa5" opacity=".7"/>
    <ellipse cx="1161.75" cy="958.7" rx="38" ry="24.7" fill="#ff9aa5" opacity=".7"/><path d="M933.75 1010.0000000000001 Q1024 1163.9 1114.25 1010.0000000000001 Q1024 1076.5 933.75 1010.0000000000001Z" fill="#102746"/>
      <path d="M981.25 1101.2 Q1024 1137.3000000000002 1066.75 1101.2" fill="none" stroke="#ff747b" stroke-width="17.099999999999998" stroke-linecap="round"/></g>
  </svg>