<svg xmlns="http://www.w3.org/2000/svg" width="2048" height="2048" viewBox="0 0 2048 2048">
  <defs>
    <filter id="shadow" x="-30%" y="-30%" width="160%" height="170%"><feDropShadow dx="0" dy="32" stdDeviation="32" flood-color="#102746" flood-opacity=".24"/></filter>
    <linearGradient id="toy" x1="0" x2="1"><stop offset="0" stop-color="#fff" stop-opacity=".55"/><stop offset=".38" stop-color="#fff" stop-opacity=".12"/><stop offset="1" stop-color="#102746" stop-opacity=".12"/></linearGradient>
  </defs>
  <ellipse cx="1024" cy="1692" rx="420" ry="72" fill="#102746" opacity=".10"/>
  <ellipse cx="1024" cy="980" rx="610" ry="640" fill="#f15aa4" opacity=".34"/>
  <g opacity=".72">
      <circle cx="648" cy="690" r="34" fill="#ffd33f"/>
      <circle cx="1400" cy="690" r="34" fill="#ffd33f"/>
      <ellipse cx="1024" cy="1518" rx="340" ry="72" fill="#fff1ad"/>
    </g>
  <g filter="url(#shadow)" transform="translate(0 0) scale(1)"><path d="M472 1280 A552 552 0 0 1 1576 1280" fill="none" stroke="#ef5954" stroke-width="170"/><path d="M586 1280 A438 438 0 0 1 1462 1280" fill="none" stroke="#ffd33f" stroke-width="130"/><path d="M690 1280 A334 334 0 0 1 1358 1280" fill="none" stroke="#52b357" stroke-width="96"/><path d="M780 1280 A244 244 0 0 1 1268 1280" fill="none" stroke="#2f95df" stroke-width="74"/><g transform="translate(0 170)"><ellipse cx="955.6" cy="974.16" rx="30.24" ry="40.32" fill="#102746"/>
      <ellipse cx="1092.4" cy="974.16" rx="30.24" ry="40.32" fill="#102746"/>
      <ellipse cx="965.6800000000001" cy="961.1999999999999" rx="9.36" ry="12.959999999999999" fill="#fff"/>
      <ellipse cx="1102.48" cy="961.1999999999999" rx="9.36" ry="12.959999999999999" fill="#fff"/><ellipse cx="919.6" cy="1023.12" rx="28.799999999999997" ry="18.72" fill="#ff9aa5" opacity=".7"/>
    <ellipse cx="1128.4" cy="1023.12" rx="28.799999999999997" ry="18.72" fill="#ff9aa5" opacity=".7"/><path d="M973.6 1077.84 Q1024 1119.6 1074.4 1077.84" fill="none" stroke="#102746" stroke-width="14.399999999999999" stroke-linecap="round"/></g></g>
  </svg>