<svg xmlns="http://www.w3.org/2000/svg" width="2048" height="2048" viewBox="0 0 2048 2048">
  <defs>
    <filter id="shadow" x="-30%" y="-30%" width="160%" height="170%"><feDropShadow dx="0" dy="32" stdDeviation="32" flood-color="#102746" flood-opacity=".24"/></filter>
    <linearGradient id="toy" x1="0" x2="1"><stop offset="0" stop-color="#fff" stop-opacity=".55"/><stop offset=".38" stop-color="#fff" stop-opacity=".12"/><stop offset="1" stop-color="#102746" stop-opacity=".12"/></linearGradient>
  </defs>
  <ellipse cx="1024" cy="1692" rx="420" ry="72" fill="#102746" opacity=".10"/>
  <ellipse cx="1024" cy="980" rx="610" ry="640" fill="#2685e8" opacity=".34"/>
  <g opacity=".82" stroke="#58db5b" stroke-width="38" stroke-linecap="round" fill="none">
      <path d="M520 846 C430 1000 450 1170 560 1304"/>
      <path d="M1528 846 C1618 1000 1598 1170 1488 1304"/>
      <ellipse cx="1024" cy="1518" rx="360" ry="76" fill="#c8ffd0" stroke="none"/>
    </g>
  <g filter="url(#shadow)" transform="rotate(1.8 1024 1010)">
    <g stroke="#102746" stroke-width="29.400000000000002" stroke-linecap="round" stroke-linejoin="round">
    <path d="M782.5 1047 C635.5 868.5 583 784.5 520 795" fill="none"/>
    <path d="M1265.5 1047 C1412.5 868.5 1465 784.5 1528 795" fill="none"/>
    <path d="M879.1 1341 L808.75 1532.1" fill="none"/>
    <path d="M1168.9 1341 L1239.25 1548.9" fill="none"/>
  </g>
  <g fill="#fff" stroke="#102746" stroke-width="18.900000000000002">
    <circle cx="509.5" cy="795" r="48.300000000000004"/>
    <circle cx="1538.5" cy="795" r="48.300000000000004"/>
    <ellipse cx="808.75" cy="1546.8" rx="86.10000000000001" ry="44.1"/>
    <ellipse cx="1239.25" cy="1563.6" rx="86.10000000000001" ry="44.1"/>
  </g>
    <rect x="690" y="1090" width="668" height="510" rx="170" fill="#2685e8" stroke="#102746" stroke-width="34"/>
    <text x="1024" y="1390" text-anchor="middle" font-family="Arial, sans-serif" font-size="126" font-weight="900" fill="#fff" stroke="#102746" stroke-width="8">LEON</text>
    <ellipse cx="1024" cy="610" rx="315" ry="335" fill="#f5b17e" stroke="#102746" stroke-width="34"/>
    <path d="M724 438 C820 210 1216 200 1324 472 C1170 375 950 400 724 438Z" fill="#2b1b13" stroke="#102746" stroke-width="24"/>
    <ellipse cx="924.25" cy="638.9" rx="44.1" ry="58.800000000000004" fill="#102746"/>
      <ellipse cx="1123.75" cy="638.9" rx="44.1" ry="58.800000000000004" fill="#102746"/>
      <ellipse cx="938.95" cy="620" rx="13.65" ry="18.900000000000002" fill="#fff"/>
      <ellipse cx="1138.45" cy="620" rx="13.65" ry="18.900000000000002" fill="#fff"/><ellipse cx="871.75" cy="710.3" rx="42" ry="27.3" fill="#ff9aa5" opacity=".7"/>
    <ellipse cx="1176.25" cy="710.3" rx="42" ry="27.3" fill="#ff9aa5" opacity=".7"/><path d="M927.4 781.7 Q1024 882.5 1120.6 781.7" fill="none" stroke="#102746" stroke-width="24.150000000000002" stroke-linecap="round"/>
    
  </g>
  </svg>