<svg xmlns="http://www.w3.org/2000/svg" width="2048" height="2048" viewBox="0 0 2048 2048">
  <defs>
    <filter id="shadow" x="-30%" y="-30%" width="160%" height="170%"><feDropShadow dx="0" dy="32" stdDeviation="32" flood-color="#102746" flood-opacity=".24"/></filter>
    <linearGradient id="toy" x1="0" x2="1"><stop offset="0" stop-color="#fff" stop-opacity=".55"/><stop offset=".38" stop-color="#fff" stop-opacity=".12"/><stop offset="1" stop-color="#102746" stop-opacity=".12"/></linearGradient>
  </defs>
  <ellipse cx="1024" cy="1692" rx="420" ry="72" fill="#102746" opacity=".10"/>
  <ellipse cx="1024" cy="980" rx="610" ry="640" fill="#ef5954" opacity=".34"/>
  <g opacity=".82">
      <ellipse cx="1024" cy="1508" rx="360" ry="84" fill="#cfe1ff"/>
      <path d="M1338 540 C1258 570 1216 666 1252 748 C1178 706 1138 612 1174 526 C1210 438 1300 394 1388 420 C1348 448 1328 492 1338 540Z" fill="#9fc2ff"/>
    </g>
  <g filter="url(#shadow)" transform="translate(0 42) rotate(-5 1024 1024) scale(.96)"><path d="M1024 360 C1240 590 1320 1000 1190 1390 H858 C728 1000 808 590 1024 360Z" fill="#fff" stroke="#102746" stroke-width="34"/><path d="M858 1160 L626 1428 L850 1362Z" fill="#ef5954" stroke="#102746" stroke-width="28"/><path d="M1190 1160 L1422 1428 L1198 1362Z" fill="#ef5954" stroke="#102746" stroke-width="28"/><circle cx="1024" cy="760" r="124" fill="#9ee7ff" stroke="#102746" stroke-width="26"/><path d="M890 1390 Q1024 1510 1158 1390" fill="#ef6470" opacity=".9"/><path d="M923.9200000000001 1022.16 C948.4 1046.6399999999999 987.28 1046.6399999999999 1011.76 1022.16" fill="none" stroke="#102746" stroke-width="15.84" stroke-linecap="round"/>
      <path d="M1036.24 1022.16 C1060.72 1046.6399999999999 1099.6000000000001 1046.6399999999999 1124.0800000000002 1022.16" fill="none" stroke="#102746" stroke-width="15.84" stroke-linecap="round"/><ellipse cx="919.6" cy="1071.12" rx="28.799999999999997" ry="18.72" fill="#ff9aa5" opacity=".7"/>
    <ellipse cx="1128.4" cy="1071.12" rx="28.799999999999997" ry="18.72" fill="#ff9aa5" opacity=".7"/><path d="M1002.4 1125.84 Q1024 1105.6799999999998 1045.6 1125.84" fill="none" stroke="#102746" stroke-width="12.959999999999999" stroke-linecap="round"/><text x="1310" y="515" font-family="Arial" font-size="96" font-weight="900" fill="#2f69d9">z</text></g>
  </svg>