<svg xmlns="http://www.w3.org/2000/svg" width="2048" height="2048" viewBox="0 0 2048 2048">
  <defs>
    <filter id="shadow" x="-30%" y="-30%" width="160%" height="170%"><feDropShadow dx="0" dy="32" stdDeviation="32" flood-color="#102746" flood-opacity=".24"/></filter>
    <linearGradient id="toy" x1="0" x2="1"><stop offset="0" stop-color="#fff" stop-opacity=".55"/><stop offset=".38" stop-color="#fff" stop-opacity=".12"/><stop offset="1" stop-color="#102746" stop-opacity=".12"/></linearGradient>
  </defs>
  <ellipse cx="1024" cy="1692" rx="420" ry="72" fill="#102746" opacity=".10"/>
  <ellipse cx="1024" cy="980" rx="610" ry="640" fill="#d9ecff" opacity=".34"/>
  <g opacity=".82">
      <ellipse cx="1024" cy="1508" rx="360" ry="84" fill="#cfe1ff"/>
      <path d="M1338 540 C1258 570 1216 666 1252 748 C1178 706 1138 612 1174 526 C1210 438 1300 394 1388 420 C1348 448 1328 492 1338 540Z" fill="#9fc2ff"/>
    </g>
  <g filter="url(#shadow)" transform="translate(0 42) rotate(-5 1024 1024) scale(.96)"><path d="M642 1190 C492 1176 400 1070 430 934 C462 794 596 742 706 790 C780 604 1012 548 1166 690 C1260 642 1398 676 1460 786 C1628 808 1718 948 1672 1102 C1626 1252 1478 1308 1328 1286 H670Z" fill="#d9ecff" stroke="#102746" stroke-width="34"/><path d="M910.02 971.96 C937.9 999.84 982.1800000000001 999.84 1010.0600000000001 971.96" fill="none" stroke="#102746" stroke-width="18.04" stroke-linecap="round"/>
      <path d="M1037.94 971.96 C1065.8200000000002 999.84 1110.1000000000001 999.84 1137.98 971.96" fill="none" stroke="#102746" stroke-width="18.04" stroke-linecap="round"/><ellipse cx="905.1" cy="1027.72" rx="32.8" ry="21.32" fill="#ff9aa5" opacity=".7"/>
    <ellipse cx="1142.9" cy="1027.72" rx="32.8" ry="21.32" fill="#ff9aa5" opacity=".7"/><path d="M999.4 1090.04 Q1024 1067.08 1048.6 1090.04" fill="none" stroke="#102746" stroke-width="14.76" stroke-linecap="round"/><text x="1310" y="515" font-family="Arial" font-size="96" font-weight="900" fill="#2f69d9">z</text></g>
  </svg>